<svg width="20" height="20" viewBox="0 0 20 20" fill="none" xmlns="http://www.w3.org/2000/svg">
<path d="M14.2035 16.8942C13.3872 17.6856 12.4958 17.6273 11.6378 17.2274C10.7297 16.8109 9.90502 16.8275 8.93869 17.2274C7.7391 17.7439 7.10599 17.5939 6.38957 16.8942C2.3243 12.704 2.92409 6.32283 7.53917 6.08958C8.66378 6.14789 9.44685 6.70603 10.105 6.75601C11.0879 6.55608 12.0293 5.98128 13.0789 6.05625C14.3368 6.15622 15.2865 6.65605 15.9113 7.55574C13.3122 9.11353 13.9286 12.5374 16.3112 13.4954C15.8363 14.7449 15.2199 15.9862 14.1952 16.9025L14.2035 16.8942ZM10.0216 6.03959C9.89669 4.1819 11.4045 2.64909 13.1372 2.49915C13.3788 4.64841 11.1879 6.24785 10.0216 6.03959Z" fill="white"/>
</svg>
