<svg preserveAspectRatio="none" width="100%" height="100%" overflow="visible" style="display: block;" viewBox="0 0 39.9962 39.9962" fill="none" xmlns="http://www.w3.org/2000/svg">
<g id="StarIcon">
<path id="Vector" opacity="0.8" d="M19.9981 38.7463C30.3525 38.7463 38.7463 30.3525 38.7463 19.9981C38.7463 9.64375 30.3525 1.24988 19.9981 1.24988C9.64375 1.24988 1.24988 9.64375 1.24988 19.9981C1.24988 30.3525 9.64375 38.7463 19.9981 38.7463Z" fill="#E5E7EB"/>
<path id="Vector_2" d="M19.9981 11.2489L22.1854 17.1859L28.1223 18.1233L23.4353 22.1854L24.6852 28.1223L19.9981 24.6852L15.311 28.1223L16.5609 22.1854L11.8739 18.1233L17.8108 17.1859L19.9981 11.2489Z" fill="#9CA3AF"/>
<path id="Vector_3" d="M19.9981 23.1228C21.7238 23.1228 23.1228 21.7238 23.1228 19.9981C23.1228 18.2724 21.7238 16.8734 19.9981 16.8734C18.2724 16.8734 16.8734 18.2724 16.8734 19.9981C16.8734 21.7238 18.2724 23.1228 19.9981 23.1228Z" fill="#D1D5DB"/>
</g>
</svg>
