<svg preserveAspectRatio="none" width="100%" height="100%" overflow="visible" style="display: block;" viewBox="0 0 40.4757 40.4757" fill="none" xmlns="http://www.w3.org/2000/svg">
<g id="MedalIcon">
<path id="Vector" d="M20.2378 39.2108C30.7163 39.2108 39.2108 30.7163 39.2108 20.2378C39.2108 9.75936 30.7163 1.26487 20.2378 1.26487C9.75935 1.26487 1.26486 9.75936 1.26486 20.2378C1.26486 30.7163 9.75935 39.2108 20.2378 39.2108Z" fill="url(#paint0_linear_0_41)"/>
<path id="Vector_2" d="M16.4432 10.1189L20.2378 7.58919L24.0324 10.1189V17.7081L20.2378 20.2378L16.4432 17.7081V10.1189Z" fill="#251B56"/>
<path id="Vector_3" d="M20.2378 30.3568C23.7307 30.3568 26.5622 27.5253 26.5622 24.0324C26.5622 20.5396 23.7307 17.7081 20.2378 17.7081C16.745 17.7081 13.9135 20.5396 13.9135 24.0324C13.9135 27.5253 16.745 30.3568 20.2378 30.3568Z" fill="#675FAA"/>
<path id="Vector_4" d="M20.2378 28.4595C22.6828 28.4595 24.6649 26.4774 24.6649 24.0324C24.6649 21.5875 22.6828 19.6054 20.2378 19.6054C17.7929 19.6054 15.8108 21.5875 15.8108 24.0324C15.8108 26.4774 17.7929 28.4595 20.2378 28.4595Z" fill="#53E4F3"/>
<path id="Vector_5" d="M20.2378 22.1351L21.1865 23.7162L22.7676 24.0324L21.1865 24.9811L20.2378 26.5622L19.2892 24.9811L17.7081 24.0324L19.2892 23.7162L20.2378 22.1351Z" fill="#FFD700"/>
</g>
<defs>
<linearGradient id="paint0_linear_0_41" x1="1.26486" y1="1.26487" x2="2429.8" y2="2429.8" gradientUnits="userSpaceOnUse">
<stop stop-color="#A78BFA"/>
<stop offset="1" stop-color="#675FAA"/>
</linearGradient>
</defs>
</svg>
