<svg preserveAspectRatio="none" width="100%" height="100%" overflow="visible" style="display: block;" viewBox="0 0 18.996 18.996" fill="none" xmlns="http://www.w3.org/2000/svg">
<g id="Icon" clip-path="url(#clip0_0_7)">
<path id="Vector" d="M12.664 16.6215V15.0385C12.664 14.1988 12.3304 13.3935 11.7367 12.7998C11.1429 12.206 10.3376 11.8725 9.49798 11.8725H4.74899C3.90931 11.8725 3.10403 12.206 2.51029 12.7998C1.91656 13.3935 1.583 14.1988 1.583 15.0385V16.6215" stroke="#9CA3AF" stroke-width="1.583" stroke-linecap="round" stroke-linejoin="round"/>
<path id="Vector_2" d="M7.12348 8.70648C8.87201 8.70648 10.2895 7.28902 10.2895 5.54049C10.2895 3.79196 8.87201 2.37449 7.12348 2.37449C5.37495 2.37449 3.95749 3.79196 3.95749 5.54049C3.95749 7.28902 5.37495 8.70648 7.12348 8.70648Z" stroke="#9CA3AF" stroke-width="1.583" stroke-linecap="round" stroke-linejoin="round"/>
<path id="Vector_3" d="M17.413 16.6215V15.0385C17.4124 14.337 17.179 13.6555 16.7492 13.1011C16.3194 12.5467 15.7177 12.1507 15.0385 11.9754" stroke="#9CA3AF" stroke-width="1.583" stroke-linecap="round" stroke-linejoin="round"/>
<path id="Vector_4" d="M12.664 2.47739C13.345 2.65176 13.9486 3.04782 14.3796 3.60314C14.8107 4.15847 15.0447 4.84146 15.0447 5.54444C15.0447 6.24743 14.8107 6.93042 14.3796 7.48574C13.9486 8.04106 13.345 8.43713 12.664 8.6115" stroke="#9CA3AF" stroke-width="1.583" stroke-linecap="round" stroke-linejoin="round"/>
</g>
<defs>
<clipPath id="clip0_0_7">
<rect width="18.996" height="18.996" fill="white"/>
</clipPath>
</defs>
</svg>
