<svg preserveAspectRatio="none" width="100%" height="100%" overflow="visible" style="display: block;" viewBox="0 0 18.996 18.996" fill="none" xmlns="http://www.w3.org/2000/svg">
<g id="Icon">
<path id="Vector" d="M11.1649 4.39519C11.3846 4.50498 11.6268 4.56214 11.8725 4.56214C12.1181 4.56214 12.3603 4.50498 12.5801 4.39519L15.4762 2.94675C15.5969 2.8864 15.7311 2.85795 15.866 2.86409C16.0008 2.87023 16.1319 2.91076 16.2467 2.98184C16.3614 3.05291 16.4561 3.15215 16.5217 3.27014C16.5873 3.38813 16.6217 3.52093 16.6215 3.65593V13.7586C16.6214 13.9056 16.5804 14.0496 16.5031 14.1746C16.4258 14.2995 16.3152 14.4005 16.1838 14.4662L12.5801 16.2685C12.3603 16.3782 12.1181 16.4354 11.8725 16.4354C11.6268 16.4354 11.3846 16.3782 11.1649 16.2685L7.83108 14.6016C7.61136 14.4918 7.36911 14.4346 7.12348 14.4346C6.87786 14.4346 6.6356 14.4918 6.41588 14.6016L3.51979 16.05C3.39897 16.1104 3.26471 16.1388 3.12979 16.1326C2.99486 16.1265 2.86376 16.0859 2.74896 16.0147C2.63417 15.9435 2.53949 15.8442 2.47394 15.7261C2.4084 15.608 2.37416 15.4751 2.37449 15.34V5.23813C2.37457 5.09118 2.41556 4.94716 2.49286 4.82218C2.57017 4.69721 2.68074 4.59622 2.81219 4.53053L6.41588 2.72829C6.6356 2.6185 6.87786 2.56134 7.12348 2.56134C7.36911 2.56134 7.61136 2.6185 7.83108 2.72829L11.1649 4.39519Z" stroke="#9CA3AF" stroke-width="1.583" stroke-linecap="round" stroke-linejoin="round"/>
<path id="Vector_2" d="M11.8725 4.56219V16.4347" stroke="#9CA3AF" stroke-width="1.583" stroke-linecap="round" stroke-linejoin="round"/>
<path id="Vector_3" d="M7.12348 2.56129V14.4338" stroke="#9CA3AF" stroke-width="1.583" stroke-linecap="round" stroke-linejoin="round"/>
</g>
</svg>
