<svg preserveAspectRatio="none" width="100%" height="100%" overflow="visible" style="display: block;" viewBox="0 0 18.996 18.996" fill="none" xmlns="http://www.w3.org/2000/svg">
<g id="Icon" clip-path="url(#clip0_0_18)">
<path id="Vector" d="M8.1271 16.6215C8.26604 16.8621 8.46588 17.0619 8.70651 17.2008C8.94715 17.3397 9.22012 17.4129 9.49798 17.4129C9.77584 17.4129 10.0488 17.3397 10.2894 17.2008C10.5301 17.0619 10.7299 16.8621 10.8689 16.6215" stroke="#9CA3AF" stroke-width="1.583" stroke-linecap="round" stroke-linejoin="round"/>
<path id="Vector_2" d="M2.58187 12.1305C2.47847 12.2438 2.41023 12.3848 2.38546 12.5362C2.36069 12.6876 2.38045 12.8429 2.44233 12.9833C2.50422 13.1236 2.60556 13.243 2.73404 13.3268C2.86251 13.4107 3.01258 13.4554 3.16599 13.4555H15.83C15.9834 13.4555 16.1335 13.411 16.262 13.3273C16.3906 13.2437 16.492 13.1244 16.5541 12.9841C16.6161 12.8439 16.6361 12.6886 16.6115 12.5372C16.5869 12.3858 16.5189 12.2447 16.4157 12.1313C15.363 11.0461 14.247 9.89293 14.247 6.33198C14.247 5.07247 13.7466 3.86455 12.856 2.97394C11.9654 2.08333 10.7575 1.583 9.49798 1.583C8.23847 1.583 7.03054 2.08333 6.13993 2.97394C5.24933 3.86455 4.74899 5.07247 4.74899 6.33198C4.74899 9.89293 3.63218 11.0461 2.58187 12.1305Z" stroke="#9CA3AF" stroke-width="1.583" stroke-linecap="round" stroke-linejoin="round"/>
</g>
<defs>
<clipPath id="clip0_0_18">
<rect width="18.996" height="18.996" fill="white"/>
</clipPath>
</defs>
</svg>
