<svg preserveAspectRatio="none" width="100%" height="100%" overflow="visible" style="display: block;" viewBox="0 0 35.9976 35.9976" fill="none" xmlns="http://www.w3.org/2000/svg">
<g id="Icon">
<path id="Vector" d="M17.9988 19.1237C21.1052 19.1237 23.6234 16.6055 23.6234 13.4991C23.6234 10.3927 21.1052 7.87447 17.9988 7.87447C14.8924 7.87447 12.3742 10.3927 12.3742 13.4991C12.3742 16.6055 14.8924 19.1237 17.9988 19.1237Z" fill="#675FAA"/>
<path id="Vector_2" d="M8.9994 29.248C8.9994 23.6234 12.9366 20.2486 17.9988 20.2486C23.061 20.2486 26.9982 23.6234 26.9982 29.248" fill="#675FAA"/>
<path id="Vector_3" d="M15.7489 13.4991C16.3702 13.4991 16.8739 12.9954 16.8739 12.3742C16.8739 11.7529 16.3702 11.2492 15.7489 11.2492C15.1277 11.2492 14.624 11.7529 14.624 12.3742C14.624 12.9954 15.1277 13.4991 15.7489 13.4991Z" fill="white"/>
<path id="Vector_4" d="M20.2486 13.4991C20.8699 13.4991 21.3736 12.9954 21.3736 12.3742C21.3736 11.7529 20.8699 11.2492 20.2486 11.2492C19.6274 11.2492 19.1237 11.7529 19.1237 12.3742C19.1237 12.9954 19.6274 13.4991 20.2486 13.4991Z" fill="white"/>
<path id="Vector_5" d="M15.7489 15.7489C15.7489 15.7489 16.8739 16.8739 17.9988 16.8739C19.1237 16.8739 20.2486 15.7489 20.2486 15.7489" stroke="white" stroke-width="1.12492" stroke-linecap="round"/>
</g>
</svg>
