<svg preserveAspectRatio="none" width="100%" height="100%" overflow="visible" style="display: block;" viewBox="0 0 18.996 18.996" fill="none" xmlns="http://www.w3.org/2000/svg">
<g id="Icon">
<path id="Vector" d="M11.8725 16.6215V10.2895C11.8725 10.0796 11.7891 9.87824 11.6406 9.7298C11.4922 9.58137 11.2909 9.49798 11.081 9.49798H7.91498C7.70506 9.49798 7.50374 9.58137 7.35531 9.7298C7.20687 9.87824 7.12348 10.0796 7.12348 10.2895V16.6215" stroke="white" stroke-width="1.97874" stroke-linecap="round" stroke-linejoin="round"/>
<path id="Vector_2" d="M2.37449 7.91498C2.37444 7.68471 2.42462 7.4572 2.52154 7.24831C2.61847 7.03943 2.75979 6.85421 2.93567 6.70557L8.47615 1.95737C8.76187 1.7159 9.12388 1.58341 9.49798 1.58341C9.87207 1.58341 10.2341 1.7159 10.5198 1.95737L16.0603 6.70557C16.2362 6.85421 16.3775 7.03943 16.4744 7.24831C16.5713 7.4572 16.6215 7.68471 16.6215 7.91498V15.0385C16.6215 15.4583 16.4547 15.8609 16.1578 16.1578C15.8609 16.4547 15.4583 16.6215 15.0385 16.6215H3.95749C3.53765 16.6215 3.13501 16.4547 2.83814 16.1578C2.54127 15.8609 2.37449 15.4583 2.37449 15.0385V7.91498Z" stroke="white" stroke-width="1.97874" stroke-linecap="round" stroke-linejoin="round"/>
</g>
</svg>
