<svg preserveAspectRatio="none" width="100%" height="100%" overflow="visible" style="display: block;" viewBox="0 0 31.999 31.999" fill="none" xmlns="http://www.w3.org/2000/svg">
<g id="CaloriesIcon">
<path id="Vector" d="M15.9995 29.999C23.7312 29.999 29.999 23.7312 29.999 15.9995C29.999 8.26774 23.7312 1.99993 15.9995 1.99993C8.26774 1.99993 1.99993 8.26774 1.99993 15.9995C1.99993 23.7312 8.26774 29.999 15.9995 29.999Z" fill="url(#paint0_linear_0_81)"/>
<path id="Vector_2" d="M15.9995 8.99971C15.9995 8.99971 12.9996 11.9996 12.9996 14.9995C12.9996 16.6545 14.3445 17.9994 15.9995 17.9994C17.6544 17.9994 18.9994 16.6545 18.9994 14.9995C18.9994 11.9996 15.9995 8.99971 15.9995 8.99971Z" fill="#251B56"/>
<path id="Vector_3" d="M15.9995 15.9995C15.9995 15.9995 14.4995 17.4994 14.4995 18.9994C14.4995 20.1043 15.3945 20.9993 16.4995 20.9993C17.6044 20.9993 18.4994 20.1043 18.4994 18.9994C18.4994 17.4994 16.9994 15.9995 15.9995 15.9995Z" fill="#53E4F3"/>
<path id="Vector_4" d="M15.9995 14.9995C16.5517 14.9995 16.9994 14.5518 16.9994 13.9995C16.9994 13.4473 16.5517 12.9996 15.9995 12.9996C15.4472 12.9996 14.9995 13.4473 14.9995 13.9995C14.9995 14.5518 15.4472 14.9995 15.9995 14.9995Z" fill="#53E4F3"/>
</g>
<defs>
<linearGradient id="paint0_linear_0_81" x1="1.99993" y1="1.99993" x2="1793.94" y2="1793.94" gradientUnits="userSpaceOnUse">
<stop stop-color="#FF6B6B"/>
<stop offset="1" stop-color="#FF8E53"/>
</linearGradient>
</defs>
</svg>
