<svg width="20" height="20" viewBox="0 0 20 20" fill="none" xmlns="http://www.w3.org/2000/svg">
<g clip-path="url(#clip0_242_390)">
<path d="M18.7936 10.2048C18.7936 9.55502 18.7352 8.93024 18.6269 8.33044H9.99658V11.8792H14.9282C14.8257 12.4402 14.6104 12.9746 14.2954 13.45C13.9804 13.9254 13.5722 14.3319 13.0955 14.6449V16.9525H16.0695C17.8022 15.353 18.8019 13.0038 18.8019 10.2048H18.7936Z" fill="#4285F4"/>
<path d="M9.99668 19.1601C12.4708 19.1601 14.5451 18.3437 16.0613 16.9442L13.0873 14.6366C12.2709 15.1865 11.2296 15.5197 9.99668 15.5197C7.61417 15.5197 5.58986 13.9119 4.86511 11.746H1.81616V14.1118C3.32398 17.1025 6.41458 19.1601 9.99668 19.1601Z" fill="#34A853"/>
<path d="M4.86495 11.7376C4.68168 11.1878 4.57339 10.6047 4.57339 9.99657C4.57339 9.38844 4.68168 8.80531 4.86495 8.2555V5.88965H1.816C1.1719 7.16299 0.83523 8.56959 0.833008 9.99657C0.833008 11.4711 1.18289 12.8706 1.816 14.1035L4.86495 11.7376Z" fill="#FBBC05"/>
<path d="M9.99668 4.48181C11.3462 4.48181 12.5458 4.94832 13.5038 5.84801L16.1279 3.22391C14.5368 1.74109 12.4708 0.833069 9.99668 0.833069C6.41458 0.833069 3.32398 2.89069 1.81616 5.88966L4.86511 8.25551C5.58986 6.08959 7.61417 4.48181 9.99668 4.48181Z" fill="#EA4335"/>
</g>
<defs>
<clipPath id="clip0_242_390">
<rect width="19.9931" height="19.9931" fill="white"/>
</clipPath>
</defs>
</svg>
