<svg width="47" height="47" viewBox="0 0 47 47" fill="none" xmlns="http://www.w3.org/2000/svg">
<g filter="url(#filter0_dd_238_2721)">
<mask id="path-1-inside-1_238_2721" fill="white">
<path d="M3 22C3 10.9543 11.9543 2 23 2H24C35.0457 2 44 10.9543 44 22V23C44 34.0457 35.0457 43 24 43H23C11.9543 43 3 34.0457 3 23V22Z"/>
</mask>
<path d="M3 22C3 10.9543 11.9543 2 23 2H24C35.0457 2 44 10.9543 44 22V23C44 34.0457 35.0457 43 24 43H23C11.9543 43 3 34.0457 3 23V22Z" fill="white" shape-rendering="crispEdges"/>
<path d="M23 2V2.63818H24V2V1.36182H23V2ZM44 22H43.3618V23H44H44.6382V22H44ZM24 43V42.3618H23V43V43.6382H24V43ZM3 23H3.63818V22H3H2.36182V23H3ZM23 43V42.3618C12.3068 42.3618 3.63818 33.6932 3.63818 23H3H2.36182C2.36182 34.3982 11.6018 43.6382 23 43.6382V43ZM44 23H43.3618C43.3618 33.6932 34.6932 42.3618 24 42.3618V43V43.6382C35.3982 43.6382 44.6382 34.3982 44.6382 23H44ZM24 2V2.63818C34.6932 2.63818 43.3618 11.3068 43.3618 22H44H44.6382C44.6382 10.6018 35.3982 1.36182 24 1.36182V2ZM23 2V1.36182C11.6018 1.36182 2.36182 10.6018 2.36182 22H3H3.63818C3.63818 11.3068 12.3068 2.63818 23 2.63818V2Z" fill="#675FAA" fill-opacity="0.1" mask="url(#path-1-inside-1_238_2721)"/>
<path d="M21.8398 31.125C22.0081 31.4163 22.25 31.6583 22.5414 31.8265C22.8327 31.9947 23.1632 32.0832 23.4997 32.0832C23.8361 32.0832 24.1666 31.9947 24.458 31.8265C24.7493 31.6583 24.9913 31.4163 25.1595 31.125" stroke="#675FAA" stroke-width="1.41597" stroke-linecap="round" stroke-linejoin="round"/>
<path d="M15.1264 25.6874C15.0012 25.8246 14.9185 25.9953 14.8886 26.1786C14.8586 26.3619 14.8825 26.55 14.9574 26.7199C15.0323 26.8899 15.155 27.0344 15.3106 27.1359C15.4662 27.2374 15.6479 27.2915 15.8336 27.2917H31.1669C31.3527 27.2917 31.5344 27.2378 31.6901 27.1365C31.8457 27.0352 31.9686 26.8908 32.0437 26.721C32.1188 26.5511 32.143 26.3631 32.1132 26.1798C32.0835 25.9965 32.0011 25.8257 31.8761 25.6884C30.6015 24.3745 29.2503 22.9782 29.2503 18.6667C29.2503 17.1417 28.6445 15.6791 27.5661 14.6008C26.4878 13.5225 25.0253 12.9167 23.5003 12.9167C21.9753 12.9167 20.5127 13.5225 19.4344 14.6008C18.3561 15.6791 17.7503 17.1417 17.7503 18.6667C17.7503 22.9782 16.3981 24.3745 15.1264 25.6874Z" stroke="#675FAA" stroke-width="1.41597" stroke-linecap="round" stroke-linejoin="round"/>
</g>
<defs>
<filter id="filter0_dd_238_2721" x="0" y="0" width="47" height="47" filterUnits="userSpaceOnUse" color-interpolation-filters="sRGB">
<feFlood flood-opacity="0" result="BackgroundImageFix"/>
<feColorMatrix in="SourceAlpha" type="matrix" values="0 0 0 0 0 0 0 0 0 0 0 0 0 0 0 0 0 0 127 0" result="hardAlpha"/>
<feMorphology radius="1" operator="erode" in="SourceAlpha" result="effect1_dropShadow_238_2721"/>
<feOffset dy="1"/>
<feGaussianBlur stdDeviation="1"/>
<feComposite in2="hardAlpha" operator="out"/>
<feColorMatrix type="matrix" values="0 0 0 0 0 0 0 0 0 0 0 0 0 0 0 0 0 0 0.1 0"/>
<feBlend mode="normal" in2="BackgroundImageFix" result="effect1_dropShadow_238_2721"/>
<feColorMatrix in="SourceAlpha" type="matrix" values="0 0 0 0 0 0 0 0 0 0 0 0 0 0 0 0 0 0 127 0" result="hardAlpha"/>
<feOffset dy="1"/>
<feGaussianBlur stdDeviation="1.5"/>
<feComposite in2="hardAlpha" operator="out"/>
<feColorMatrix type="matrix" values="0 0 0 0 0 0 0 0 0 0 0 0 0 0 0 0 0 0 0.1 0"/>
<feBlend mode="normal" in2="effect1_dropShadow_238_2721" result="effect2_dropShadow_238_2721"/>
<feBlend mode="normal" in="SourceGraphic" in2="effect2_dropShadow_238_2721" result="shape"/>
</filter>
</defs>
</svg>
