<svg preserveAspectRatio="none" width="100%" height="100%" overflow="visible" style="display: block;" viewBox="0 0 19.9931 19.9931" fill="none" xmlns="http://www.w3.org/2000/svg">
<g id="Icon" clip-path="url(#clip0_0_4)">
<path id="Vector" d="M3.33218 11.6626C3.17454 11.6632 3.01998 11.619 2.88647 11.5352C2.75295 11.4514 2.64595 11.3314 2.5779 11.1892C2.50986 11.047 2.48355 10.8884 2.50205 10.7318C2.52055 10.5753 2.58309 10.4272 2.68241 10.3048L10.9296 1.80771C10.9914 1.7363 11.0757 1.68805 11.1686 1.67087C11.2615 1.65369 11.3575 1.6686 11.4408 1.71316C11.5241 1.75772 11.5898 1.82928 11.6271 1.9161C11.6644 2.00291 11.671 2.09982 11.646 2.19091L10.0465 7.20585C9.99937 7.33207 9.98353 7.46786 10.0004 7.60155C10.0172 7.73524 10.0662 7.86285 10.1432 7.97344C10.2202 8.08402 10.3229 8.17427 10.4425 8.23646C10.562 8.29864 10.6948 8.3309 10.8296 8.33046H16.6609C16.8186 8.32992 16.9731 8.37412 17.1066 8.45793C17.2402 8.54174 17.3472 8.66171 17.4152 8.80391C17.4832 8.94611 17.5095 9.1047 17.491 9.26126C17.4725 9.41781 17.41 9.5659 17.3107 9.68832L9.06354 18.1854C9.00168 18.2568 8.91737 18.3051 8.82447 18.3222C8.73157 18.3394 8.63558 18.3245 8.55227 18.2799C8.46896 18.2354 8.40328 18.1638 8.366 18.077C8.32872 17.9902 8.32206 17.8933 8.34712 17.8022L9.94657 12.7873C9.99373 12.661 10.0096 12.5252 9.99273 12.3916C9.97588 12.2579 9.92686 12.1302 9.84986 12.0197C9.77286 11.9091 9.67018 11.8188 9.55064 11.7566C9.4311 11.6945 9.29825 11.6622 9.1635 11.6626H3.33218Z" stroke="#FFFFFF" stroke-width="1.66609" stroke-linecap="round" stroke-linejoin="round"/>
</g>
<defs>
<clipPath id="clip0_0_4">
<rect width="19.9931" height="19.9931" fill="white"/>
</clipPath>
</defs>
</svg>
