<svg preserveAspectRatio="none" width="100%" height="100%" overflow="visible" style="display: block;" viewBox="0 0 18.3343 17.554" fill="none" xmlns="http://www.w3.org/2000/svg">
<path id="Vector" d="M8.77205 1.07871C8.80857 1.00495 8.86498 0.942863 8.93492 0.899455C9.00487 0.856048 9.08555 0.833046 9.16788 0.833046C9.25021 0.833046 9.33089 0.856048 9.40084 0.899455C9.47078 0.942863 9.52719 1.00495 9.56371 1.07871L11.4887 4.97653C11.6155 5.23308 11.8027 5.45504 12.0342 5.62335C12.2657 5.79166 12.5347 5.9013 12.8179 5.94286L17.1229 6.57264C17.2045 6.58446 17.2811 6.61885 17.3441 6.67194C17.4072 6.72503 17.4541 6.79469 17.4796 6.87304C17.5051 6.9514 17.5081 7.03532 17.4884 7.11532C17.4686 7.19532 17.4269 7.2682 17.3679 7.32572L14.2545 10.3563C14.0492 10.5564 13.8956 10.8033 13.8069 11.0758C13.7182 11.3483 13.6971 11.6383 13.7454 11.9208L14.4804 16.2027C14.4948 16.2842 14.486 16.3681 14.455 16.4448C14.424 16.5215 14.372 16.588 14.305 16.6367C14.238 16.6853 14.1587 16.7141 14.0761 16.7199C13.9935 16.7256 13.911 16.7081 13.8379 16.6692L9.98955 14.6465C9.73598 14.5134 9.45386 14.4439 9.16746 14.4439C8.88106 14.4439 8.59895 14.5134 8.34538 14.6465L4.49788 16.6692C4.42482 16.7078 4.34238 16.7252 4.25992 16.7194C4.17747 16.7135 4.09831 16.6846 4.03146 16.636C3.96461 16.5874 3.91274 16.521 3.88176 16.4444C3.85078 16.3678 3.84193 16.284 3.85621 16.2027L4.59038 11.9216C4.63888 11.639 4.61787 11.3488 4.52916 11.0761C4.44046 10.8034 4.28672 10.5564 4.08121 10.3563L0.967879 7.32655C0.908374 7.2691 0.866207 7.19609 0.846181 7.11585C0.826155 7.03561 0.829076 6.95136 0.854611 6.8727C0.880146 6.79404 0.927268 6.72413 0.99061 6.67093C1.05395 6.61773 1.13097 6.58339 1.21288 6.57181L5.51705 5.94286C5.80059 5.90162 6.06987 5.79213 6.3017 5.62379C6.53353 5.45546 6.72097 5.23333 6.84788 4.97653L8.77205 1.07871Z" stroke="#675FAA" stroke-opacity="0.2" stroke-width="1.66609" stroke-linecap="round" stroke-linejoin="round"/>
</svg>
