<svg width="10" height="10" viewBox="0 0 10 10" fill="none" xmlns="http://www.w3.org/2000/svg">
<g clip-path="url(#clip0_19_1627)">
<path d="M4.81351 1.35971C4.83148 1.32708 4.85787 1.29986 4.88995 1.28091C4.92202 1.26195 4.9586 1.25195 4.99585 1.25195C5.03311 1.25195 5.06968 1.26195 5.10176 1.28091C5.13383 1.29986 5.16023 1.32708 5.1782 1.35971L6.40716 3.69275C6.43647 3.74677 6.47737 3.79363 6.52694 3.82997C6.5765 3.86631 6.6335 3.89123 6.69384 3.90293C6.75417 3.91463 6.81635 3.91282 6.87591 3.89765C6.93546 3.88247 6.99092 3.85429 7.0383 3.81514L8.81888 2.28976C8.85306 2.26196 8.89518 2.24572 8.93918 2.24339C8.98317 2.24105 9.02678 2.25273 9.06371 2.27675C9.10065 2.30077 9.12901 2.33589 9.14471 2.37706C9.16041 2.41823 9.16265 2.46331 9.1511 2.50583L7.97126 6.7714C7.94718 6.85869 7.89529 6.93574 7.82347 6.99089C7.75165 7.04603 7.66381 7.07625 7.57326 7.07698H2.41886C2.32824 7.07634 2.24031 7.04616 2.1684 6.99101C2.0965 6.93586 2.04455 6.85875 2.02045 6.7714L0.841023 2.50625C0.829471 2.46373 0.831707 2.41864 0.84741 2.37748C0.863113 2.33631 0.891474 2.30119 0.928408 2.27717C0.965343 2.25315 1.00895 2.24146 1.05294 2.2438C1.09694 2.24614 1.13906 2.26238 1.17324 2.29018L2.95341 3.81556C3.00078 3.85471 3.05624 3.88289 3.1158 3.89806C3.17535 3.91324 3.23753 3.91504 3.29787 3.90334C3.3582 3.89164 3.4152 3.86673 3.46477 3.83039C3.51433 3.79405 3.55524 3.74718 3.58454 3.69316L4.81351 1.35971Z" stroke="#D97706" stroke-width="0.832631" stroke-linecap="round" stroke-linejoin="round"/>
<path d="M2.08154 8.74261H7.90996" stroke="#D97706" stroke-width="0.832631" stroke-linecap="round" stroke-linejoin="round"/>
</g>
<defs>
<clipPath id="clip0_19_1627">
<rect width="9.99157" height="9.99157" fill="white"/>
</clipPath>
</defs>
</svg>
